<svg version="1.1" xmlns="http://www.w3.org/2000/svg" viewBox="0 0 400 400" fill="none">
<path d="M0 0 C0.99707389 -0.00384115 1.99414778 -0.00768229 3.02143604 -0.01163983 C4.11985 -0.01077335 5.21826396 -0.00990687 6.34996319 -0.00901413 C7.51462807 -0.01198525 8.67929295 -0.01495637 9.87925071 -0.01801753 C13.11770423 -0.02520518 16.35612548 -0.02787743 19.59458578 -0.028615 C23.08563703 -0.03046471 26.57667676 -0.03801195 30.06772137 -0.04475021 C37.70666827 -0.05834128 45.34560994 -0.06436033 52.98456693 -0.06876087 C57.75754771 -0.07152373 62.53052648 -0.07576133 67.3035059 -0.08026505 C80.52542303 -0.09246201 93.74733853 -0.10275834 106.96926117 -0.10614014 C108.23912696 -0.10646949 108.23912696 -0.10646949 109.53464661 -0.10680549 C110.38323595 -0.10702377 111.2318253 -0.10724204 112.10612947 -0.10746694 C113.82564692 -0.1079104 115.54516437 -0.10835696 117.26468182 -0.10880661 C118.11761941 -0.10902804 118.97055699 -0.10924947 119.84934118 -0.10947761 C133.64898426 -0.11341983 147.44857435 -0.13085432 161.248197 -0.15416613 C175.42549726 -0.17792184 189.60277099 -0.19034402 203.78009146 -0.19150805 C211.73609785 -0.1924228 219.69203532 -0.1981238 227.64802265 -0.21632767 C234.42804971 -0.23178614 241.20798657 -0.23681568 247.98802791 -0.22858956 C251.44293073 -0.22470238 254.89765227 -0.22551685 258.35253239 -0.23964691 C290.54766621 -0.34902004 290.54766621 -0.34902004 305.87527752 7.31892776 C306.68053875 7.71112503 307.48579998 8.1033223 308.31546307 8.50740433 C314.81866313 11.75998563 320.558172 15.51071212 326.18777752 20.13142776 C327.17391033 20.8932637 327.17391033 20.8932637 328.17996502 21.67049026 C329.56635331 22.76298979 330.88807545 23.93710694 332.18777752 25.13142776 C332.18777752 25.79142776 332.18777752 26.45142776 332.18777752 27.13142776 C332.84777752 27.13142776 333.50777752 27.13142776 334.18777752 27.13142776 C334.18777752 27.79142776 334.18777752 28.45142776 334.18777752 29.13142776 C334.84777752 29.13142776 335.50777752 29.13142776 336.18777752 29.13142776 C353.70568634 48.05944689 362.4040034 75.27567776 361.63699627 100.77205276 C359.67753838 123.67081557 352.58059621 149.70809741 334.83230877 165.62752151 C332.94049067 167.35756894 331.33961538 169.23443053 329.68777752 171.19392776 C326.52297242 174.85881493 323.17684922 178.35276041 319.18777752 181.13142776 C318.52777752 181.13142776 317.86777752 181.13142776 317.18777752 181.13142776 C317.18777752 181.79142776 317.18777752 182.45142776 317.18777752 183.13142776 C314.9868852 184.68088031 312.81267625 186.07823645 310.50027752 187.44392776 C309.82198895 187.84619583 309.14370037 188.2484639 308.4448576 188.66292191 C290.16288503 199.23801837 271.63598748 200.28982492 251.02371502 200.29939651 C249.37947849 200.30261765 247.73524224 200.30598233 246.09100628 200.30948257 C242.66362118 200.31543385 239.23626116 200.31732641 235.80887127 200.3167305 C231.43697534 200.31662861 227.06524084 200.33032626 222.69338322 200.34750271 C219.30458123 200.35866266 215.91581795 200.36064855 212.52699947 200.36012077 C210.91560207 200.36129311 209.30420341 200.3656725 207.69282436 200.37345314 C187.56888746 200.46160387 187.56888746 200.46160387 178.18777752 195.13142776 C177.23902752 194.61580276 176.29027752 194.10017776 175.31277752 193.56892776 C174.61152752 193.09455276 173.91027752 192.62017776 173.18777752 192.13142776 C173.18777752 191.47142776 173.18777752 190.81142776 173.18777752 190.13142776 C172.54840252 189.86330276 171.90902752 189.59517776 171.25027752 189.31892776 C169.18777752 188.13142776 169.18777752 188.13142776 168.18777752 185.13142776 C167.52777752 184.80142776 166.86777752 184.47142776 166.18777752 184.13142776 C164.18777752 183.13142776 164.18777752 183.13142776 163.18777752 180.13142776 C162.52777752 179.80142776 161.86777752 179.47142776 161.18777752 179.13142776 C159.18777752 178.13142776 159.18777752 178.13142776 158.18777752 175.13142776 C157.52777752 174.80142776 156.86777752 174.47142776 156.18777752 174.13142776 C154.18777752 173.13142776 154.18777752 173.13142776 153.18777752 170.13142776 C152.52777752 169.80142776 151.86777752 169.47142776 151.18777752 169.13142776 C149.18777752 168.13142776 149.18777752 168.13142776 148.18777752 165.13142776 C147.52777752 164.80142776 146.86777752 164.47142776 146.18777752 164.13142776 C144.18777752 163.13142776 144.18777752 163.13142776 143.18777752 160.13142776 C142.52777752 159.80142776 141.86777752 159.47142776 141.18777752 159.13142776 C139.18777752 158.13142776 139.18777752 158.13142776 138.18777752 155.13142776 C136.86065827 154.4524751 135.52594138 153.78834457 134.18777752 153.13142776 C132.5151243 151.6442167 130.89364904 150.09866699 129.30887127 148.51814651 C128.38783611 147.59968948 127.46680096 146.68123245 126.51785564 145.73494339 C125.8054472 145.01625076 125.8054472 145.01625076 125.07864666 144.28303909 C123.63344111 142.82715169 122.17791502 141.38220753 120.72098064 139.93806839 C119.80123455 139.01574417 118.88148846 138.09341995 117.93387127 137.14314651 C117.09525555 136.30227493 116.25663982 135.46140335 115.3926115 134.59505081 C112.11368308 130.93126311 110.18777752 128.5644867 110.18777752 123.56892776 C111.45792335 119.20280146 112.22760738 118.37871857 116.18777752 116.13142776 C120.39742649 115.46838812 124.58742015 115.43138475 128.84305096 115.38093948 C130.08885811 115.35208097 131.33466526 115.32322247 132.61822414 115.29348946 C136.47486991 115.2135981 140.33047481 115.16584067 144.18777752 115.13142776 C145.31883419 115.12122856 146.44989086 115.11102936 147.61522198 115.10052109 C154.16901913 115.05592984 160.72149758 115.07373188 167.27524853 115.11739349 C170.82501149 115.14001525 174.37471692 115.15369309 177.92453289 115.16508865 C187.99152549 115.19816966 198.05841898 115.24083706 208.12527752 115.30281448 C214.34318837 115.34047602 220.56100961 115.36347494 226.77901745 115.37712097 C229.12810852 115.38514189 231.47718781 115.39870312 233.82621288 115.41805267 C237.09300777 115.44456859 240.35936485 115.45242624 243.62625408 115.4561348 C245.05999874 115.4746701 245.05999874 115.4746701 246.52270794 115.49357986 C253.74940103 115.47197589 259.39803574 114.44631988 265.12527752 109.69392776 C268.71059156 105.23944668 268.73565209 100.74714211 268.18777752 95.13142776 C266.38745732 88.60526704 262.80943227 85.50895421 257.18777752 82.13142776 C253.67129064 80.95926547 250.51101354 80.99105859 246.85321331 81.00012589 C246.10028165 80.99801017 245.34734999 80.99589446 244.57160223 80.99371463 C242.04081413 80.98770861 239.5100758 80.98871524 236.97928143 80.98958206 C235.16744178 80.98655079 233.35560289 80.98302942 231.54376507 80.9790535 C227.63634055 80.97115879 223.72892518 80.96601729 219.8214941 80.96276283 C213.63434592 80.95685144 207.44725524 80.9403076 201.2601347 80.92142105 C199.14101127 80.91508326 197.02188781 80.90875764 194.90276432 80.90244389 C193.31056257 80.89769517 193.31056257 80.89769517 191.68619514 80.89285052 C177.28129677 80.85080751 162.87642451 80.81782724 148.47146893 80.80550003 C138.75725726 80.79710153 129.04318736 80.77454098 119.32904661 80.73614436 C114.19164528 80.71643676 109.05445564 80.70396134 103.91701412 80.70897865 C99.07583781 80.71364864 94.23506149 80.69969203 89.39396572 80.67196655 C87.62562403 80.66509299 85.85724063 80.66488648 84.08890057 80.67216682 C66.28127608 80.73802478 51.28964099 76.91485555 38.18777752 64.13142776 C37.14977985 62.95026128 36.12509101 61.75731491 35.1113615 60.55525589 C30.71565786 55.4918166 25.91619236 50.88224384 21.09793377 46.22517776 C19.15837602 44.33080476 17.22309324 42.43207889 15.28738689 40.53377151 C12.26056117 37.56697745 9.22839939 34.60636742 6.17483807 31.6670723 C4.16865984 29.7351702 2.1735567 27.79305009 0.18983746 25.8380928 C-1.6697605 24.00564292 -3.54450162 22.18840366 -5.43574238 20.38862991 C-12.36320666 13.49283171 -12.36320666 13.49283171 -12.4980135 8.66463089 C-11.73662996 4.74197424 -11.03131028 3.43077619 -7.81222248 1.13142776 C-4.89400216 0.15868766 -3.03685299 0.0043858 0 0 Z " fill="#FC1C17" transform="translate(27.812222480773926,100.86857223510742)"/>
<path d="M0 0 C4.55966292 0.45596629 7.72170971 1.74460274 11.58203125 4.0625 C20.5152074 7.52609011 31.63614336 6.13394612 41.09594727 6.11352539 C42.92976378 6.11324301 44.7635804 6.11340224 46.59739685 6.1139679 C51.55539345 6.1142539 56.51336568 6.10838907 61.47135663 6.10139394 C66.66034142 6.09512754 71.84932682 6.094554 77.03831482 6.09336853 C86.8553266 6.09026489 96.67232719 6.08206456 106.48933405 6.07201904 C117.66949781 6.06082784 128.84966212 6.05533988 140.0298301 6.05032361 C163.01989292 6.03988113 186.00994583 6.02230045 209 6 C209 6.99 209 7.98 209 9 C209.60328125 9.19335938 210.2065625 9.38671875 210.828125 9.5859375 C212.02695312 9.97652344 212.02695312 9.97652344 213.25 10.375 C214.03890625 10.63023437 214.8278125 10.88546875 215.640625 11.1484375 C217.86627958 11.95173667 219.90931672 12.89711662 222 14 C222 14.66 222 15.32 222 16 C223.32 16.33 224.64 16.66 226 17 C226.13615919 20.00155373 226.2346398 22.996821 226.3125 26 C226.3753418 27.25876953 226.3753418 27.25876953 226.43945312 28.54296875 C226.56024798 34.77598303 225.30893594 39.33906648 221 44 C219.68431847 44.7008597 218.34769908 45.3628741 217 46 C216.31042269 46.34793484 215.62084538 46.69586967 214.91037178 47.05434799 C207.6152645 50.37184291 201.03215496 50.54430692 193.10498047 50.45410156 C191.73406508 50.45297089 190.36314727 50.45361122 188.99223328 50.45587158 C185.30057766 50.45701112 181.60945046 50.43362672 177.91791677 50.40557575 C174.04891287 50.38043393 170.17989453 50.37821009 166.31082153 50.37347412 C158.99764151 50.36108164 151.68470296 50.32831106 144.37162888 50.28807616 C136.04027169 50.24324177 127.70890247 50.22134219 119.37745452 50.20129442 C102.25149708 50.15957468 85.12577414 50.0892959 68 50 C68.25523874 51.62752231 68.52974494 53.25203196 68.8125 54.875 C68.96332031 55.77992188 69.11414063 56.68484375 69.26953125 57.6171875 C69.83051301 60.34412478 69.83051301 60.34412478 73 62 C74 63.8125 74 63.8125 75 66 C77.46413881 70.76007703 80.88778335 74.11981762 84.6875 77.8125 C85.29400391 78.40998047 85.90050781 79.00746094 86.52539062 79.62304688 C88.01240312 81.08664185 89.50558811 82.54396102 91 84 C88 84 88 84 85.6875 82.05981445 C84.800625 81.1699585 83.91375 80.28010254 83 79.36328125 C82.28457031 78.64859932 82.28457031 78.64859932 81.5546875 77.91947937 C80.54587108 76.90832123 79.5407495 75.89346539 78.5390625 74.87524414 C77.01448341 73.32720626 75.47717251 71.79277609 73.9375 70.25976562 C63 59.25996822 63 59.25996822 63 53.4375 C64.27014583 49.07137369 65.03982986 48.2472908 69 46 C73.20964898 45.33696036 77.39964263 45.29995699 81.65527344 45.24951172 C82.90108059 45.22065321 84.14688774 45.1917947 85.43044662 45.16206169 C89.28709239 45.08217034 93.14269729 45.03441291 97 45 C98.13105667 44.9898008 99.26211334 44.97960159 100.42744446 44.96909332 C106.98124161 44.92450208 113.53372006 44.94230411 120.08747101 44.98596573 C123.63723397 45.00858748 127.1869394 45.02226533 130.73675537 45.03366089 C140.80374798 45.06674189 150.87064146 45.1094093 160.9375 45.17138672 C167.15541085 45.20904826 173.37323209 45.23204718 179.59123993 45.24569321 C181.940331 45.25371412 184.28941029 45.26727535 186.63843536 45.28662491 C189.90523025 45.31314083 193.17158733 45.32099847 196.43847656 45.32470703 C197.39430634 45.3370639 198.35013611 45.34942078 199.33493042 45.3621521 C206.56162351 45.34054812 212.21025822 44.31489212 217.9375 39.5625 C221.52281404 35.10801892 221.54787457 30.61571434 221 25 C219.1996798 18.47383927 215.62165475 15.37752645 210 12 C206.48351312 10.82783771 203.32323602 10.85963082 199.66543579 10.86869812 C198.91250413 10.86658241 198.15957247 10.86446669 197.38382471 10.86228687 C194.85303661 10.85628085 192.32229828 10.85728747 189.79150391 10.8581543 C187.97966426 10.85512302 186.16782537 10.85160166 184.35598755 10.84762573 C180.44856303 10.83973103 176.54114766 10.83458953 172.63371658 10.83133507 C166.4465684 10.82542368 160.25947772 10.80887984 154.07235718 10.78999329 C151.95323375 10.78365549 149.8341103 10.77732987 147.7149868 10.77101612 C146.12278505 10.7662674 146.12278505 10.7662674 144.49841762 10.76142275 C130.09351925 10.71937974 115.68864699 10.68639947 101.28369141 10.67407227 C91.56947974 10.66567377 81.85540984 10.64311322 72.14126909 10.6047166 C67.00386776 10.585009 61.86667812 10.57253357 56.7292366 10.57755089 C51.88806029 10.58222087 47.04728397 10.56826426 42.2061882 10.54053879 C40.43784651 10.53366523 38.66946311 10.53345871 36.90112305 10.54073906 C23.30952782 10.59100487 11.3496819 9.23408295 0 1 C0 0.67 0 0.34 0 0 Z " fill="#E14643" transform="translate(75,171)"/>
<path d="M0 0 C0.99707389 -0.00384115 1.99414778 -0.00768229 3.02143604 -0.01163983 C4.11985 -0.01077335 5.21826396 -0.00990687 6.34996319 -0.00901413 C7.51462807 -0.01198525 8.67929295 -0.01495637 9.87925071 -0.01801753 C13.11770423 -0.02520518 16.35612548 -0.02787743 19.59458578 -0.028615 C23.08563703 -0.03046471 26.57667676 -0.03801195 30.06772137 -0.04475021 C37.70666827 -0.05834128 45.34560994 -0.06436033 52.98456693 -0.06876087 C57.75754771 -0.07152373 62.53052648 -0.07576133 67.3035059 -0.08026505 C80.52542303 -0.09246201 93.74733853 -0.10275834 106.96926117 -0.10614014 C108.23912696 -0.10646949 108.23912696 -0.10646949 109.53464661 -0.10680549 C110.38323595 -0.10702377 111.2318253 -0.10724204 112.10612947 -0.10746694 C113.82564692 -0.1079104 115.54516437 -0.10835696 117.26468182 -0.10880661 C118.11761941 -0.10902804 118.97055699 -0.10924947 119.84934118 -0.10947761 C133.64898426 -0.11341983 147.44857435 -0.13085432 161.248197 -0.15416613 C175.42549726 -0.17792184 189.60277099 -0.19034402 203.78009146 -0.19150805 C211.73609785 -0.1924228 219.69203532 -0.1981238 227.64802265 -0.21632767 C234.42804971 -0.23178614 241.20798657 -0.23681568 247.98802791 -0.22858956 C251.44293073 -0.22470238 254.89765227 -0.22551685 258.35253239 -0.23964691 C290.54602479 -0.34901446 290.54602479 -0.34901446 305.87527752 7.31892776 C306.67691326 7.70894974 307.478549 8.09897171 308.30447674 8.50081253 C324.3929688 16.54181033 324.3929688 16.54181033 327.18777752 22.13142776 C324.70687616 20.98639637 322.66108511 19.74837874 320.43777752 18.13142776 C316.62480134 15.78498089 313.54724258 15.03338605 309.18777752 14.13142776 C309.18777752 13.47142776 309.18777752 12.81142776 309.18777752 12.13142776 C307.57902752 11.72924026 307.57902752 11.72924026 305.93777752 11.31892776 C302.53950653 10.24280862 300.8572407 9.34063867 298.18777752 7.13142776 C294.4275363 4.59735216 290.60678336 4.93787517 286.25027752 5.06892776 C278.78881022 5.25358369 278.78881022 5.25358369 275.75710326 4.63740927 C273.17471186 4.12885472 270.85950474 4.00719535 268.23090935 4.00837994 C267.25257013 4.00638889 266.27423092 4.00439784 265.26624507 4.00234646 C263.66556594 4.00671572 263.66556594 4.00671572 262.03254986 4.01117325 C260.89305018 4.01031882 259.7535505 4.0094644 258.57952052 4.00858408 C254.75320424 4.0069342 250.92693158 4.01244268 247.10061932 4.01790237 C244.3610001 4.01874096 241.62138173 4.01807031 238.8817625 4.01745987 C232.97939062 4.0169356 227.07702979 4.02007233 221.17466068 4.02569771 C212.64083306 4.03382576 204.10701078 4.03642927 195.5731797 4.0376857 C181.7275055 4.03987416 167.88183719 4.04652869 154.03616619 4.05598831 C140.58662222 4.06516774 127.13707985 4.07224598 113.68753338 4.07649612 C112.44392665 4.07689021 112.44392665 4.07689021 111.17519655 4.07729226 C107.01597792 4.0785973 102.85675929 4.079861 98.69754064 4.08110416 C64.19428203 4.09147037 29.69103041 4.10908311 -4.81222248 4.13142776 C-4.81222248 4.91517776 -4.81222248 5.69892776 -4.81222248 6.50642776 C-4.81222248 10.38142776 -4.81222248 14.25642776 -4.81222248 18.13142776 C-3.49222248 18.13142776 -2.17222248 18.13142776 -0.81222248 18.13142776 C-0.81222248 19.78142776 -0.81222248 21.43142776 -0.81222248 23.13142776 C-2.5492485 21.66764179 -4.27608001 20.19489888 -5.98800373 18.70174026 C-7.37244498 17.50999426 -8.80181385 16.37020364 -10.24972248 15.25642776 C-12.30520267 12.46097471 -12.37830169 10.44566981 -12.20675373 7.03377151 C-11.59834141 4.10013981 -10.20075734 2.83752409 -7.81222248 1.13142776 C-4.89400216 0.15868766 -3.03685299 0.0043858 0 0 Z " fill="#DF251E" transform="translate(27.812222480773926,100.86857223510742)"/>
<path d="M0 0 C4.55966292 0.45596629 7.72170971 1.74460274 11.58203125 4.0625 C20.5152074 7.52609011 31.63614336 6.13394612 41.09594727 6.11352539 C42.92976378 6.11324301 44.7635804 6.11340224 46.59739685 6.1139679 C51.55539345 6.1142539 56.51336568 6.10838907 61.47135663 6.10139394 C66.66034142 6.09512754 71.84932682 6.094554 77.03831482 6.09336853 C86.8553266 6.09026489 96.67232719 6.08206456 106.48933405 6.07201904 C117.66949781 6.06082784 128.84966212 6.05533988 140.0298301 6.05032361 C163.01989292 6.03988113 186.00994583 6.02230045 209 6 C209 7.32 209 8.64 209 10 C184.71240226 10.09358431 160.42483168 10.16404824 136.13708973 10.20724869 C124.85899122 10.22784364 113.58100496 10.25590551 102.30297852 10.30175781 C92.46910022 10.34171956 82.63530325 10.36745509 72.801346 10.37635398 C67.59790294 10.38155292 62.39469249 10.39370816 57.19132423 10.42292023 C52.28542064 10.45023701 47.37984366 10.45841234 42.47387123 10.45243073 C40.68131226 10.45352373 38.88874142 10.46138013 37.09624863 10.4768219 C23.41642951 10.58880669 11.43009006 9.29241828 0 1 C0 0.67 0 0.34 0 0 Z " fill="#DE3E35" transform="translate(75,171)"/>
</svg>
